<svg width="52" height="52" viewBox="0 0 52 52" fill="none" xmlns="http://www.w3.org/2000/svg">
<path d="M26.1442 33.0599C29.979 33.0599 33.0875 29.9514 33.0875 26.1167C33.0875 22.2819 29.979 19.1734 26.1442 19.1734C22.3094 19.1734 19.2009 22.2819 19.2009 26.1167C19.2009 29.9514 22.3094 33.0599 26.1442 33.0599Z" stroke="#38457A" stroke-width="5" stroke-linecap="round" stroke-linejoin="round"/>
<path d="M43.7857 22.4029L41.2452 16.2683L44.6597 12.2301L40.0308 7.60126L36.0146 11.0334L29.7497 8.457L28.3089 2.97241H23.7859L22.3234 8.52965L16.2024 11.1098L12.2577 7.60126L7.62885 12.2301L10.9926 16.3703L8.49097 22.5207L3 23.8022V28.4311L8.55719 29.9482L11.1369 36.068L7.62885 40.0032L12.2577 44.6321L16.4032 41.2537L22.4342 43.7348L23.8298 49.2609H28.4587L29.8577 43.7368L35.9924 41.1963C37.0149 41.9272 40.0308 44.6321 40.0308 44.6321L44.6597 40.0032L41.2248 35.9516L43.7661 29.8151L49.2883 28.3783L49.2885 23.8022L43.7857 22.4029Z" stroke="#38457A" stroke-width="5" stroke-linecap="round" stroke-linejoin="round"/>
</svg>
