<svg width="52" height="50" viewBox="0 0 52 50" fill="none" xmlns="http://www.w3.org/2000/svg">
<path d="M18.2483 47.0237H13.1655C7.55126 47.0237 3 42.4723 3 36.8582V20.8667C3 17.312 4.85676 14.0156 7.89672 12.1732L20.6036 4.472C23.8422 2.50933 27.9028 2.50933 31.1413 4.472L43.8482 12.1732C46.8882 14.0156 48.7449 17.312 48.7449 20.8667V36.8582C48.7449 42.4723 44.1936 47.0237 38.5794 47.0237H33.4966M18.2483 47.0237V36.8582C18.2483 32.6473 21.6616 29.234 25.8725 29.234C30.0833 29.234 33.4966 32.6473 33.4966 36.8582V47.0237M18.2483 47.0237H33.4966" stroke="#38457A" stroke-width="5" stroke-linecap="round" stroke-linejoin="round"/>
</svg>
