<?xml version="1.0" encoding="utf-8"?>
<!-- Generator: Adobe Illustrator 27.9.0, SVG Export Plug-In . SVG Version: 6.00 Build 0)  -->
<svg version="1.1" id="Camada_1" xmlns="http://www.w3.org/2000/svg" xmlns:xlink="http://www.w3.org/1999/xlink" x="0px" y="0px"
	 viewBox="0 0 148.91 140.19" style="enable-background:new 0 0 148.91 140.19;" xml:space="preserve">
<style type="text/css">
	.st0{fill:#FFFFFF;}
	.st1{fill:#38457A;}
	.st2{fill:#D82521;}
	.st3{fill:#D84C4C;}
	.st4{fill:#B3B3B3;}
	.st5{fill:#A5A5A5;}
	.st6{fill:#898989;}
	.st7{fill:#999999;}
	.st8{fill:#474747;}
	.st9{fill:#5A5A5A;}
	.st10{fill:#767676;}
</style>
<g>
	<g>
		<g>
			<g>
				<path class="st7" d="M54.07,138.31c0.02-0.26,0.11-0.54,0.28-0.83c0.16-0.3,0.35-0.53,0.56-0.69c0.62,0.34,1.29,0.65,2.01,0.94
					c0.72,0.29,1.46,0.43,2.22,0.43c0.97,0,1.76-0.22,2.35-0.67c0.59-0.45,0.89-1.02,0.9-1.71c0-0.51-0.19-0.98-0.57-1.42
					c-0.38-0.44-0.93-0.79-1.63-1.05l-1.77-0.66c-0.68-0.25-1.3-0.55-1.88-0.92c-0.58-0.36-1.05-0.8-1.4-1.33
					c-0.35-0.52-0.53-1.14-0.53-1.87c0-0.84,0.23-1.57,0.68-2.18c0.45-0.61,1.05-1.07,1.8-1.39c0.75-0.32,1.57-0.48,2.47-0.48
					c0.73,0,1.51,0.09,2.34,0.28c0.82,0.18,1.53,0.41,2.13,0.68c0,0.28-0.06,0.57-0.17,0.87c-0.11,0.3-0.28,0.56-0.48,0.77
					c-0.46-0.21-1.03-0.41-1.71-0.6c-0.68-0.19-1.4-0.29-2.17-0.29c-0.8,0-1.46,0.2-1.97,0.6c-0.51,0.4-0.77,0.95-0.77,1.63
					c0,0.52,0.19,0.95,0.58,1.29c0.39,0.34,0.96,0.66,1.71,0.95l1.83,0.69c1.1,0.41,1.99,0.96,2.66,1.65
					c0.67,0.69,1.01,1.57,1.01,2.64c0,1.31-0.51,2.33-1.54,3.07c-1.03,0.74-2.33,1.1-3.91,1.1c-1.04,0-1.98-0.15-2.82-0.45
					C55.42,139.05,54.69,138.7,54.07,138.31z"/>
				<path class="st7" d="M77.66,132.15c0,1.47-0.23,2.78-0.69,3.94c-0.46,1.16-1.15,2.07-2.06,2.73c-0.91,0.66-2.05,0.99-3.41,0.99
					c-1.36,0-2.5-0.34-3.4-1.01c-0.91-0.67-1.59-1.58-2.05-2.74c-0.46-1.16-0.69-2.46-0.69-3.91c0-1.47,0.23-2.78,0.69-3.93
					c0.46-1.15,1.15-2.06,2.06-2.73c0.91-0.67,2.04-1,3.38-1c1.37,0,2.51,0.34,3.43,1.01c0.91,0.67,1.6,1.58,2.06,2.73
					C77.44,129.38,77.66,130.69,77.66,132.15z M67.5,132.15c0,0.99,0.12,1.95,0.37,2.87c0.25,0.92,0.67,1.67,1.25,2.26
					c0.59,0.59,1.39,0.89,2.4,0.89c1,0,1.8-0.3,2.38-0.89c0.58-0.59,1-1.35,1.24-2.26c0.25-0.92,0.37-1.87,0.37-2.87
					c0-0.98-0.12-1.94-0.37-2.87c-0.25-0.93-0.66-1.69-1.24-2.29c-0.58-0.6-1.37-0.89-2.38-0.89c-1.01,0-1.81,0.3-2.4,0.89
					c-0.59,0.6-1,1.36-1.25,2.29C67.63,130.21,67.5,131.16,67.5,132.15z"/>
				<path class="st7" d="M83.96,137.84c0.12,0.3,0.18,0.68,0.18,1.13c0,0.07,0,0.14,0,0.22s-0.01,0.14-0.03,0.2
					c-0.28,0.04-0.63,0.08-1.04,0.12c-0.42,0.04-0.77,0.06-1.07,0.06c-0.72,0-1.3-0.2-1.76-0.61c-0.46-0.41-0.69-1-0.69-1.77v-19.46
					l0.18-0.18h0.74c0.48,0,0.78,0.12,0.91,0.37c0.13,0.24,0.19,0.6,0.19,1.07v17.61c0,0.42,0.09,0.73,0.28,0.94
					c0.19,0.21,0.46,0.31,0.82,0.31H83.96z"/>
				<path class="st7" d="M85.17,127.62c0-0.48-0.02-0.93-0.06-1.36c-0.04-0.43-0.13-0.81-0.27-1.14c0.15-0.14,0.35-0.25,0.59-0.33
					c0.24-0.08,0.48-0.12,0.72-0.12c0.39,0,0.66,0.11,0.83,0.34c0.16,0.22,0.25,0.57,0.25,1.04v8.37c0,1.2,0.15,2.07,0.46,2.61
					c0.31,0.54,0.9,0.81,1.77,0.81c0.63,0,1.28-0.14,1.97-0.43c0.69-0.29,1.33-0.67,1.92-1.15c0.59-0.48,1.05-1,1.38-1.58v2.23
					c-0.64,0.81-1.48,1.48-2.53,2.01c-1.05,0.53-2.13,0.79-3.22,0.79c-0.94,0-1.69-0.21-2.25-0.63c-0.56-0.42-0.96-0.98-1.2-1.68
					c-0.24-0.7-0.37-1.47-0.37-2.3V127.62z M96.23,135.34c0,0.64,0.05,1.25,0.14,1.83c0.09,0.59,0.33,1.06,0.69,1.42
					c-0.07,0.19-0.19,0.39-0.37,0.6c-0.18,0.21-0.38,0.37-0.61,0.48c-0.75-0.3-1.26-0.77-1.52-1.43c-0.26-0.66-0.39-1.37-0.39-2.15
					v-11.23c0.27-0.06,0.61-0.09,1.01-0.09c0.43,0,0.77,0.03,1.04,0.09V135.34z"/>
				<path class="st7" d="M106.78,124.82c0.06,0.3,0.09,0.57,0.09,0.8c0,0.27-0.03,0.54-0.09,0.8l-5.71-0.06l-3.46,0.06
					c-0.06-0.27-0.09-0.54-0.09-0.8c0-0.24,0.03-0.51,0.09-0.8l3.43,0.06L106.78,124.82z M99.7,121.66c0-0.47,0.06-0.82,0.19-1.07
					c0.13-0.24,0.43-0.37,0.91-0.37h0.74l0.18,0.18v16.21c0,0.36,0.09,0.65,0.26,0.88c0.17,0.23,0.47,0.34,0.9,0.34h2.29
					c0.12,0.3,0.18,0.68,0.18,1.13c0,0.07,0,0.14,0,0.22s-0.01,0.14-0.03,0.2c-0.46,0.06-0.92,0.1-1.39,0.13
					c-0.47,0.03-1,0.04-1.59,0.04c-0.8,0-1.45-0.2-1.93-0.61c-0.48-0.41-0.72-1-0.72-1.77V121.66z"/>
				<path class="st7" d="M109.85,139.45c-0.27,0.06-0.61,0.09-1.01,0.09c-0.43,0-0.77-0.03-1.04-0.09v-11.59
					c0-0.56-0.09-0.93-0.26-1.13c-0.17-0.2-0.49-0.3-0.96-0.3h-0.27c-0.06-0.27-0.09-0.53-0.09-0.77c0-0.14,0.01-0.27,0.02-0.38
					c0.01-0.11,0.04-0.25,0.07-0.39c0.33-0.05,0.61-0.08,0.85-0.1c0.24-0.01,0.43-0.02,0.58-0.02h0.24c0.6,0,1.06,0.18,1.39,0.54
					c0.33,0.36,0.49,0.87,0.49,1.51V139.45z M106.87,121c0-0.44,0.07-0.79,0.21-1.07c0.14-0.09,0.33-0.16,0.58-0.22
					c0.25-0.05,0.48-0.08,0.7-0.08c0.2,0,0.43,0.03,0.7,0.08c0.27,0.05,0.46,0.13,0.58,0.22c0.06,0.12,0.11,0.28,0.15,0.49
					c0.04,0.21,0.06,0.4,0.06,0.58c0,0.44-0.07,0.79-0.21,1.07c-0.1,0.09-0.29,0.16-0.57,0.22c-0.28,0.05-0.52,0.08-0.72,0.08
					c-0.22,0-0.45-0.03-0.7-0.08c-0.25-0.05-0.44-0.13-0.58-0.22C106.94,121.8,106.87,121.44,106.87,121z"/>
				<path class="st7" d="M124.09,132.15c0,1.47-0.23,2.78-0.69,3.94c-0.46,1.16-1.15,2.07-2.06,2.73c-0.91,0.66-2.05,0.99-3.41,0.99
					c-1.36,0-2.5-0.34-3.4-1.01c-0.91-0.67-1.59-1.58-2.05-2.74c-0.46-1.16-0.69-2.46-0.69-3.91c0-1.47,0.23-2.78,0.69-3.93
					c0.46-1.15,1.15-2.06,2.06-2.73c0.91-0.67,2.04-1,3.38-1c1.37,0,2.51,0.34,3.43,1.01c0.91,0.67,1.6,1.58,2.06,2.73
					C123.87,129.38,124.09,130.69,124.09,132.15z M113.93,132.15c0,0.99,0.12,1.95,0.37,2.87c0.25,0.92,0.67,1.67,1.25,2.26
					c0.59,0.59,1.39,0.89,2.4,0.89c1,0,1.8-0.3,2.38-0.89c0.58-0.59,1-1.35,1.24-2.26c0.25-0.92,0.37-1.87,0.37-2.87
					c0-0.98-0.12-1.94-0.37-2.87c-0.25-0.93-0.66-1.69-1.24-2.29c-0.58-0.6-1.37-0.89-2.38-0.89c-1.01,0-1.81,0.3-2.4,0.89
					c-0.59,0.6-1,1.36-1.25,2.29C114.06,130.21,113.93,131.16,113.93,132.15z"/>
				<path class="st7" d="M126.96,124.76c0.48,0,0.78,0.12,0.91,0.36c0.13,0.24,0.19,0.6,0.19,1.07v13.26
					c-0.27,0.06-0.61,0.09-1.01,0.09c-0.43,0-0.77-0.03-1.04-0.09v-14.51l0.18-0.18H126.96z M137.06,136.68
					c0,0.48,0.02,0.93,0.07,1.36c0.04,0.43,0.13,0.81,0.26,1.14c-0.15,0.13-0.35,0.24-0.59,0.32c-0.24,0.08-0.48,0.13-0.72,0.13
					c-0.39,0-0.66-0.11-0.83-0.34c-0.16-0.23-0.25-0.57-0.25-1.03v-8.37c0-1.21-0.15-2.09-0.45-2.62c-0.3-0.54-0.9-0.8-1.78-0.8
					c-0.63,0-1.28,0.14-1.97,0.43c-0.69,0.29-1.33,0.67-1.92,1.15c-0.59,0.48-1.05,1-1.38,1.58v-2.23c0.65-0.82,1.49-1.5,2.55-2.02
					c1.05-0.52,2.12-0.78,3.2-0.78c0.94,0,1.69,0.21,2.25,0.63c0.56,0.42,0.96,0.98,1.2,1.68c0.24,0.7,0.37,1.47,0.37,2.3V136.68z"
					/>
				<path class="st7" d="M138.45,138.31c0.02-0.26,0.11-0.54,0.28-0.83c0.16-0.3,0.35-0.53,0.56-0.69c0.62,0.34,1.29,0.65,2.01,0.94
					c0.72,0.29,1.46,0.43,2.22,0.43c0.97,0,1.76-0.22,2.35-0.67c0.59-0.45,0.89-1.02,0.9-1.71c0-0.51-0.19-0.98-0.57-1.42
					c-0.38-0.44-0.93-0.79-1.63-1.05l-1.77-0.66c-0.68-0.25-1.3-0.55-1.88-0.92c-0.58-0.36-1.05-0.8-1.4-1.33
					c-0.35-0.52-0.53-1.14-0.53-1.87c0-0.84,0.23-1.57,0.68-2.18c0.45-0.61,1.05-1.07,1.8-1.39c0.75-0.32,1.57-0.48,2.47-0.48
					c0.73,0,1.51,0.09,2.34,0.28c0.82,0.18,1.53,0.41,2.13,0.68c0,0.28-0.06,0.57-0.17,0.87c-0.11,0.3-0.28,0.56-0.48,0.77
					c-0.46-0.21-1.03-0.41-1.71-0.6c-0.68-0.19-1.4-0.29-2.17-0.29c-0.8,0-1.46,0.2-1.97,0.6c-0.51,0.4-0.77,0.95-0.77,1.63
					c0,0.52,0.19,0.95,0.58,1.29c0.39,0.34,0.96,0.66,1.71,0.95l1.83,0.69c1.1,0.41,1.99,0.96,2.66,1.65
					c0.67,0.69,1.01,1.57,1.01,2.64c0,1.31-0.51,2.33-1.54,3.07c-1.03,0.74-2.33,1.1-3.91,1.1c-1.04,0-1.98-0.15-2.82-0.45
					C139.8,139.05,139.07,138.7,138.45,138.31z"/>
			</g>
			<g>
				<g>
					<path class="st1" d="M47.42,123.22c-0.67-1.68-1.7-3.01-3.07-3.95c-1.37-0.95-3.14-1.43-5.25-1.43c-2.09,0-3.84,0.47-5.22,1.41
						c-1.37,0.94-2.41,2.26-3.08,3.94c-0.66,1.66-1,3.61-1,5.81c0,1.63,0.19,3.14,0.55,4.49c0.37,1.37,0.94,2.56,1.7,3.55
						c0.76,1,1.74,1.78,2.91,2.33c1.16,0.54,2.55,0.81,4.13,0.81c2.1,0,3.86-0.48,5.23-1.42c1.37-0.94,2.41-2.27,3.08-3.95
						c0.66-1.66,1-3.62,1-5.81C48.41,126.82,48.08,124.88,47.42,123.22z M35.41,126.52c0.09-0.82,0.28-1.59,0.55-2.28
						c0.26-0.67,0.65-1.21,1.15-1.62c0.49-0.4,1.16-0.6,2-0.6s1.5,0.2,2,0.6c0.51,0.41,0.89,0.95,1.15,1.62
						c0.27,0.69,0.45,1.46,0.55,2.28c0.1,0.84,0.14,1.67,0.14,2.48c0,0.81-0.05,1.65-0.14,2.49c-0.09,0.83-0.28,1.6-0.55,2.29
						c-0.26,0.67-0.65,1.22-1.15,1.62c-0.49,0.4-1.16,0.6-2,0.6s-1.5-0.2-2-0.6c-0.51-0.41-0.89-0.95-1.15-1.62
						c-0.27-0.7-0.45-1.47-0.55-2.29c-0.1-0.84-0.14-1.68-0.14-2.49C35.26,128.19,35.31,127.35,35.41,126.52z"/>
				</g>
				<g>
					<path class="st1" d="M11.64,131.59H6.76c-0.25,0-0.59,0-1.03-0.01l-0.66-0.01v2.2c0,0.05,0,0.1,0,0.15v0.1c0,0.03,0,0.07,0,0.1
						c0,0.01,0,0.03,0,0.04v0.03c0,0.14,0,0.27-0.01,0.39c0,0.05,0,0.1,0,0.15c0,0.05,0,0.1-0.01,0.16c0,0.04,0,0.08,0,0.11
						c0,0.03,0,0.06,0,0.08c0,0.06,0,0.12,0,0.18c0,0.06,0,0.12,0,0.18c0.23,0,0.47-0.01,0.69-0.01c0.44-0.01,0.78-0.01,1.03-0.01
						h7.42v0.29c0,1.26-0.2,2.25-0.6,2.93c-0.01,0.02-0.02,0.04-0.04,0.06c-0.23,0.36-0.56,0.64-1,0.82
						c-0.44,0.18-0.99,0.27-1.64,0.27H2.89c-0.62,0-1.15-0.13-1.59-0.39c-0.19-0.11-0.37-0.25-0.52-0.41
						c-0.26-0.26-0.45-0.58-0.58-0.94c-0.1-0.27-0.16-0.56-0.18-0.88C0,137.1,0,136.99,0,136.88v-17.59l0.38-0.38h10.53
						c0.41,0,0.77,0.04,1.1,0.11c0.06,0.01,0.13,0.03,0.19,0.05c0.62,0.17,1.07,0.49,1.35,0.94c0.01,0.01,0.01,0.03,0.02,0.04
						c0.01,0.01,0.01,0.02,0.02,0.03c0.4,0.68,0.6,1.66,0.6,2.93v0.29H6.76c-0.25,0-0.59,0-1.03-0.01c-0.23,0-0.46-0.01-0.69-0.01
						c0,0.06,0,0.12,0,0.18c0,0.06,0,0.12,0,0.18c0,0.07,0,0.13,0,0.2c0,0.03,0,0.07,0,0.1c0,0.02,0,0.04,0,0.06
						c0,0.05,0,0.1,0,0.15v0c0,0.12,0.01,0.25,0.01,0.39c0,0,0,0,0,0v0.07c0,0.02,0,0.05,0,0.07c0,0.02,0,0.05,0,0.07v0.07
						c0,0.03,0,0.07,0,0.1v2.25l0.66-0.01c0.44-0.01,0.78-0.01,1.03-0.01h4.88V131.59z"/>
					<path class="st1" d="M29.16,135.34v0.29c0,0.17,0,0.33-0.01,0.49c0,0,0,0,0,0.01c0,0,0,0,0,0.01c0,0,0,0,0,0.01v0
						c-0.05,1.25-0.3,2.14-0.75,2.7c-0.52,0.65-1.39,0.98-2.6,0.98l-7,0c-0.81-0.03-1.47-0.29-1.97-0.78
						c-0.53-0.52-0.8-1.25-0.8-2.16v-17.79l0.18-0.18l0.19-0.2h1.78c0.48,0,0.91,0.07,1.28,0.2c0.37,0.13,0.67,0.32,0.92,0.57
						c0.5,0.51,0.76,1.31,0.76,2.4v13.55c0.88-0.05,1.71-0.08,2.47-0.08H29.16z"/>
				</g>
			</g>
		</g>
	</g>
	<g>
		<path class="st2" d="M43.24,58.15c-3.8,3.02-7.5,6.62-10.31,10.68c1.37,0.55,2.8,1,4.26,1.35c0.51-0.6,1.04-1.17,1.58-1.71
			c4.02-4,8.89-7.22,14.21-9.7C49.7,58.93,46.41,58.78,43.24,58.15z"/>
		<path class="st1" d="M112.38,19.47c0.01-0.59-0.09-1.4-0.14-2c-0.08-0.48-0.16-1.01-0.25-1.49c-0.08-0.35-0.28-1.11-0.38-1.47
			c-0.16-0.47-0.33-0.97-0.51-1.44c-0.15-0.32-0.47-1.05-0.64-1.38c-0.19-0.32-0.55-1.01-0.75-1.32c-0.29-0.4-0.58-0.85-0.87-1.25
			c-0.28-0.32-0.67-0.84-0.98-1.16c-0.35-0.35-0.7-0.74-1.06-1.07c-0.46-0.39-1.04-0.94-1.54-1.28c-8.06-6-19.99-6.26-29.6-4.97
			c-19.5,2.74-41.34,13.41-52.19,30.36c-5.14,8.08-7.53,18.06-3.03,26.97c2.76,5.28,7.27,8.79,12.49,10.87
			c1.37,0.55,2.8,1,4.26,1.35c2.27,0.56,4.61,0.89,6.95,1.02c17.1,0.88,35.13-7.35,48.49-18.61c-2.12-0.27-4.26-0.42-6.36-0.5
			c-2.33-0.05-4.72,0-7.14,0.17c-5.83,2.61-11.94,4.48-17.82,5.57c-2.73,0.46-5.53,0.81-8.33,0.94c-3.28,0.15-6.56,0.01-9.74-0.62
			c-1.23-0.24-2.44-0.56-3.64-0.96c-1.14-0.38-2.21-0.89-3.25-1.48c-0.49-0.31-0.98-0.64-1.44-0.99c-0.61-0.5-1.16-1.07-1.65-1.68
			c-0.09-0.13-0.34-0.5-0.42-0.61c-0.11-0.21-0.24-0.44-0.36-0.64c-0.09-0.22-0.21-0.45-0.31-0.67l-0.08-0.24l-0.17-0.47
			c-0.21-0.76-0.35-1.54-0.41-2.32c-0.02-0.58,0-1.17,0.03-1.75c0.13-1.19,0.33-2.35,0.69-3.5c2.14-6.96,6.98-12.92,12.11-18.02
			C56.14,13.46,73.68,4.06,90.4,4.75c6.42,0.3,13.67,2.56,16.82,8.61c3.08,6.08,0.71,13.29-2.79,18.69
			c-2.14,3.27-4.76,6.26-7.72,8.95c2.17,0.17,4.31,0.48,6.41,0.91C108.24,35.44,112.53,27.51,112.38,19.47z"/>
		<path class="st3" d="M117.79,86.13c-14.1,14.36-37.67,20.32-57.31,19c-9.66-0.7-21.29-3.42-27.94-10.94
			c-0.42-0.43-0.88-1.1-1.25-1.57c-0.29-0.4-0.55-0.86-0.82-1.27c-0.23-0.37-0.51-0.97-0.72-1.34c-0.21-0.44-0.4-0.95-0.6-1.4
			c-0.13-0.35-0.34-1.09-0.47-1.45c-0.1-0.36-0.25-1.14-0.34-1.49c-0.08-0.49-0.14-1.02-0.2-1.51c-0.02-0.37-0.06-1.16-0.06-1.52
			c0.01-0.49,0.03-1.02,0.06-1.51c0.08-0.59,0.14-1.41,0.27-1.98c0.7-3.68,2.34-7.14,4.53-10.31c1.37,0.55,2.8,1,4.26,1.35
			c-3.77,4.41-6.54,10.2-4.98,16c1.84,6.56,8.47,10.27,14.69,11.88c16.22,4.1,35.32-1.49,49.21-10.18
			c6.07-3.94,12.03-8.78,15.56-15.15c0.58-1.05,1.03-2.15,1.39-3.29c0.14-0.56,0.29-1.13,0.38-1.7c0.11-0.78,0.13-1.57,0.08-2.36
			l-0.07-0.49l-0.03-0.25c-0.06-0.23-0.12-0.48-0.17-0.72c-0.08-0.22-0.16-0.47-0.22-0.7c-0.06-0.12-0.23-0.54-0.29-0.68
			c-0.36-0.7-0.78-1.37-1.28-1.99c-0.38-0.44-0.79-0.86-1.2-1.27c-0.9-0.79-1.84-1.51-2.88-2.12c-4.46-2.61-9.57-3.93-14.75-4.58
			c-2.12-0.27-4.26-0.42-6.36-0.5c-2.33-0.05-4.72,0-7.14,0.17c-8.81,0.61-18.01,2.7-26.15,6.51c-3.28,0.15-6.56,0.01-9.74-0.62
			c1.2-0.95,2.41-1.85,3.61-2.68C60.59,46,79.43,39.59,96.71,40.99c2.17,0.17,4.31,0.48,6.41,0.91c0.91,0.19,1.8,0.4,2.69,0.63
			c9.24,2.48,17.76,8.21,20.47,17.82C128.86,70,124.47,79.28,117.79,86.13z"/>
	</g>
</g>
</svg>
