<?xml version="1.0" encoding="UTF-8"?>
<svg id="Camada_2" data-name="Camada 2" xmlns="http://www.w3.org/2000/svg" viewBox="0 0 135.06 88.04">
  <defs>
    <style>
      .cls-1 {
        fill: #d84c4c;
        stroke-width: 0px;
      }
    </style>
  </defs>
  <g id="Camada_1-2" data-name="Camada 1">
    <path class="cls-1" d="M122.44,61.86c-19.24,19.6-51.41,27.73-78.22,25.93-13.19-.96-29.06-4.66-38.14-14.93-.57-.58-1.2-1.5-1.7-2.14-.39-.55-.75-1.18-1.12-1.73-.32-.51-.69-1.32-.98-1.83-.28-.61-.55-1.29-.81-1.91-.18-.47-.47-1.49-.64-1.98-.13-.49-.35-1.55-.46-2.03-.1-.67-.19-1.39-.28-2.06-.02-.5-.09-1.58-.09-2.07.01-.67.04-1.4.08-2.06.1-.81.19-1.93.37-2.71.96-5.02,3.19-9.74,6.18-14.07l5.81,1.85c-5.15,6.03-8.93,13.93-6.8,21.84,2.51,8.96,11.56,14.01,20.05,16.21,22.14,5.6,48.21-2.03,67.16-13.89,8.29-5.38,16.42-11.98,21.23-20.68.8-1.44,1.4-2.94,1.9-4.49.2-.76.39-1.55.52-2.33.15-1.07.18-2.14.11-3.22l-.1-.67-.04-.34c-.08-.32-.17-.66-.23-.98-.11-.3-.21-.65-.3-.96-.09-.17-.32-.74-.4-.93-.49-.96-1.06-1.87-1.74-2.71-.51-.6-1.07-1.18-1.64-1.73-1.23-1.08-2.51-2.06-3.92-2.89-6.09-3.56-13.07-5.36-20.13-6.25-2.9-.36-5.81-.57-8.69-.69-3.18-.07-6.45,0-9.75.23-12.03.83-43.73,8.89-57.23,24.48l-5.81-1.85c6.08-8.97,13.68-14.07,18.98-18.25C44.37,7.09,70.09-1.66,93.67.26c2.96.24,5.88.65,8.75,1.24,1.24.25,2.46.54,3.67.86,12.61,3.38,24.24,11.21,27.94,24.32,3.53,13.16-2.46,25.83-11.59,35.18Z"/>
  </g>
</svg>