<?xml version="1.0" encoding="UTF-8"?>
<svg id="Camada_2" data-name="Camada 2" xmlns="http://www.w3.org/2000/svg" viewBox="0 0 128.73 97.25">
  <defs>
    <style>
      .cls-1 {
        fill: #38457a;
        stroke-width: 0px;
      }
    </style>
  </defs>
  <g id="Camada_1-2" data-name="Camada 1">
    <path class="cls-1" d="M128.72,26.57c.02-.8-.13-1.91-.19-2.73-.1-.66-.22-1.37-.35-2.03-.1-.48-.39-1.52-.52-2.01-.22-.63-.45-1.32-.69-1.96-.21-.44-.64-1.44-.87-1.89-.26-.44-.76-1.38-1.03-1.81-.39-.55-.79-1.17-1.19-1.7-.39-.44-.92-1.15-1.34-1.59-.48-.47-.96-1.01-1.45-1.47-.62-.53-1.42-1.29-2.11-1.74C107.98-.54,91.69-.91,78.59.86,51.99,4.6,22.18,19.17,7.37,42.3.36,53.32-2.9,66.95,3.24,79.11c3.77,7.21,9.92,12,17.04,14.83,1.88.75,3.82,1.36,5.81,1.85,3.1.76,6.29,1.21,9.49,1.39,23.34,1.21,60.2-15.02,80.5-39.99l-4.33-.61-4.42-.63c-21.27,18.41-40.31,21.49-48.33,22.98-3.72.63-7.54,1.11-11.37,1.29-4.47.21-8.95.01-13.29-.85-1.68-.33-3.34-.76-4.96-1.31-1.56-.52-3.02-1.22-4.44-2.02-.67-.43-1.33-.88-1.96-1.36-.83-.68-1.58-1.46-2.26-2.29-.12-.17-.46-.68-.58-.83-.15-.29-.32-.6-.5-.88-.12-.3-.28-.62-.42-.91l-.11-.32-.23-.63c-.29-1.04-.48-2.1-.55-3.17-.03-.79,0-1.6.04-2.38.17-1.62.45-3.21.94-4.78,2.92-9.5,9.52-17.63,16.53-24.6,16.12-15.51,40.07-28.34,62.88-27.41,8.76.4,18.65,3.5,22.95,11.75,4.21,8.29.97,18.14-3.8,25.5-2.93,4.46-6.5,8.54-10.54,12.22l8.75,1.24c7-8.82,12.85-19.64,12.64-30.62Z"/>
  </g>
</svg>